<?xml version="1.0" encoding="UTF-8"?>
<svg id="b" data-name="レイヤー 2" xmlns="http://www.w3.org/2000/svg" viewBox="0 0 758.12 155.25">
  <g id="c" data-name="レイヤー 1">
    <path d="M739.06,141.51h-64.18L748.06,6H85.34L10.06,145.38h65.47l-.47.85c-.11.21-.16.45-.2.68,0,.02,0,.04,0,.06-.02.14-.02.28-.02.42,0,.07,0,.13.01.2.01.09.03.17.05.26.02.07.02.14.04.2.01.04.04.08.06.12,0,0,0,.02,0,.03,0,.02.02.03.02.04.26.61.75,1.01,1.3,1.01h662.72c1.66,0,3.01-1.73,3.01-3.87s-1.35-3.87-3.01-3.87Z" style="fill: #000; stroke: #fff; stroke-miterlimit: 10; stroke-width: 12px;"/>
    <polygon points="748.06 6 85.34 6 10.06 145.38 672.78 145.38 748.06 6" style="fill: #ff0; stroke-width: 0px;"/>
    <path d="M739.06,141.51h-117.33s-.08-.04-.13-.04h-53.34c-.99,0-1.71-1.2-1.46-2.42l12.93-63.88c.17-.85.77-1.45,1.46-1.45h50.73c1.37,0,2.57-1.19,2.92-2.9l.49-2.42c.12-.58.02-1.2-.27-1.67-.29-.47-.73-.75-1.19-.75h-50.33c-.99,0-1.71-1.2-1.46-2.42l10.19-50.33c.17-.85.77-1.45,1.46-1.45h53.74c1.37,0,2.57-1.19,2.92-2.9l.49-2.42c.12-.58.02-1.2-.27-1.67-.29-.47-.73-.75-1.19-.75h-60.25c-.69,0-1.29.6-1.46,1.45l-27.24,134.59c-.17.85-.77,1.45-1.46,1.45h-23.92c.66-.33,1.3-.65,1.88-.97.43-.24.74-.71.86-1.29l14.34-70.85c.12-.58.02-1.2-.27-1.67-.29-.47-.73-.75-1.19-.75h-47.03c-1.37,0-2.57,1.19-2.92,2.9l-.49,2.42c-.12.58-.02,1.2.27,1.67.29.47.73.75,1.19.75h41.29c.99,0,1.71,1.2,1.46,2.42l-11.68,57.7c-.12.61-.47,1.11-.92,1.34-5.68,2.84-11.54,4.92-17.55,6.3-.09.02-.19.03-.29.03h-29.92c-.13,0-.26-.02-.39-.06-8.24-2.62-14.55-7.86-18.8-15.7-6.4-11.78-7.54-28.14-3.39-48.64,4.18-20.66,12.07-37.23,23.45-49.23,11.35-11.98,24.88-18.05,40.21-18.05,11.96,0,21.75,3.58,29.1,10.65.27.26.59.39.9.39.41,0,.82-.22,1.12-.64l2.32-3.29c.28-.4.42-.94.38-1.49-.04-.54-.26-1.04-.6-1.36-8.3-7.96-19.21-12-32.44-12-16.75,0-31.69,6.79-44.41,20.18-12.7,13.37-21.43,31.49-25.96,53.86-4.56,22.54-3.12,40.86,4.29,54.45,1.4,2.57,3.63,5.1,6.15,7.41,1.2,1.1.61,3.52-.86,3.52h-32.26c-.76,0-1.4-.73-1.49-1.7l-12.88-134.05c-.09-.97-.73-1.7-1.49-1.7h-4.52c-.51,0-.99.33-1.27.89l-67.94,135.67c-.28.55-.75.89-1.27.89h-14.79c-.44,0-.86-.25-1.14-.68l-43.48-65.12c-.58-.87-.45-2.2.29-2.85L356.41,7.55c.54-.48.78-1.36.58-2.17-.2-.81-.78-1.36-1.44-1.36h-4.2c-.61,0-1.21.24-1.72.69l-66.26,59.07c-1.15,1.02-2.67-.34-2.32-2.08l11.18-55.26c.12-.58.02-1.2-.27-1.67-.29-.47-.73-.75-1.19-.75h-3.31c-.69,0-1.28.6-1.46,1.45l-25.53,126.16c-.37,1.82-2.34,1.96-2.86.21L219.9,5.27c-.22-.75-.78-1.24-1.41-1.24h-4.82c-.69,0-1.28.6-1.46,1.45l-27.24,134.59c-.17.85-.77,1.45-1.46,1.45h-16.03c-.76,0-1.4-.73-1.49-1.7L153.11,5.72c-.09-.97-.73-1.7-1.5-1.7h-3.7c-1.02,0-1.98.67-2.53,1.78l-70.33,140.43c-.11.21-.16.45-.2.68,0,.02,0,.04,0,.06-.02.14-.02.28-.02.43,0,.07,0,.13.01.2.01.09.03.17.05.26.02.07.02.14.04.2.01.04.04.08.06.12,0,0,0,.02,0,.03,0,.02.02.03.02.04.26.61.75,1.01,1.3,1.01h662.72c1.66,0,3.01-1.73,3.01-3.87h0c0-2.14-1.35-3.87-3.01-3.87ZM151.87,96.47c-.19-1.94-1.47-3.4-2.99-3.4h-37.64c-1.19,0-1.91-1.69-1.27-2.98l35.57-71.25c.76-1.53,2.59-.99,2.76.81l7.14,75.63.42,3.84,3.88,40.21c.11,1.15-.59,2.17-1.49,2.17h-71.32c-1.19,0-1.91-1.7-1.27-2.98l18.45-36.82c.28-.55.75-.89,1.27-.89h45.2c.43,0,.84-.24,1.13-.65.29-.42.42-.97.37-1.52l-.21-2.17ZM191.3,139.09l23.78-117.48c.37-1.82,2.34-1.96,2.86-.21l35.01,117.48c.38,1.27-.35,2.63-1.41,2.63h-58.79c-.99,0-1.71-1.2-1.46-2.42ZM279.2,82.98l36.8,55.34c.84,1.26.14,3.19-1.14,3.19h-47.99c-.99,0-1.71-1.2-1.46-2.42l11.2-55.34c.31-1.51,1.81-1.96,2.6-.77ZM416.04,100.86c.43,0,.84-.24,1.13-.65.29-.42.42-.97.37-1.52l-.21-2.17c-.19-1.94-1.47-3.4-2.99-3.4h-37.64c-1.19,0-1.91-1.69-1.27-2.98l35.57-71.25c.76-1.53,2.59-.99,2.76.81l7.14,75.63.42,3.84,3.87,40.18c.11,1.15-.59,2.17-1.49,2.17h-71.29c-1.19,0-1.91-1.7-1.27-2.98l18.43-36.78c.28-.55.75-.89,1.27-.89h45.2Z" style="fill: #000; stroke-width: 0px;"/>
  </g>
</svg>